<svg width="24" height="25" viewBox="0 0 24 25" fill="none" xmlns="http://www.w3.org/2000/svg">
<path d="M8.08435 11.7424L8.29275 11.7424C11.5732 11.7424 14.8537 11.7424 18.1342 11.7424C18.5731 11.7424 18.8894 11.966 18.9801 12.3372C19.088 12.7845 18.7447 13.2202 18.2544 13.2548C18.1882 13.2594 18.1195 13.2571 18.0533 13.2571C14.7973 13.2571 11.5389 13.2571 8.28295 13.2571L8.08435 13.2571C8.14074 13.3148 8.17752 13.354 8.21675 13.3908C9.03074 14.1563 9.84473 14.9194 10.6587 15.6848C11.0412 16.0445 10.9946 16.5978 10.5656 16.8699C10.2493 17.0704 9.83493 17.0382 9.54807 16.7799C9.24405 16.5056 8.94983 16.2197 8.65071 15.9407C7.4665 14.8295 6.28474 13.7159 5.10052 12.6047C5.0662 12.5724 5.03678 12.5401 5 12.5032C5.02207 12.4779 5.03923 12.4571 5.05884 12.4387C6.54463 11.0438 8.03041 9.6467 9.51619 8.25186C9.80796 7.97751 10.2027 7.92448 10.5288 8.10662C10.9848 8.36253 11.0584 8.93199 10.6734 9.30318C10.3498 9.61673 10.0164 9.92336 9.68782 10.2323C9.19256 10.698 8.6973 11.1637 8.20204 11.6271C8.17016 11.6571 8.13829 11.6917 8.0868 11.7447L8.08435 11.7424Z" fill="black"/>
</svg>
