<svg width="74" height="74" viewBox="0 0 74 74" fill="none" xmlns="http://www.w3.org/2000/svg">
<g filter="url(#filter0_d_3_5544)">
<circle cx="37" cy="33" r="33" fill="black"/>
</g>
<g clip-path="url(#clip0_3_5544)">
<path d="M45.1703 34.2697H44.7088C37.4447 34.2697 30.1806 34.2697 22.9165 34.2697C21.9447 34.2697 21.2443 33.7479 21.0435 32.8819C20.8046 31.8383 21.5646 30.8217 22.6505 30.741C22.797 30.7302 22.9491 30.7356 23.0956 30.7356C30.3055 30.7356 37.5207 30.7356 44.7305 30.7356H45.1703C45.0454 30.6011 44.9639 30.5097 44.8771 30.4236C43.0746 28.6378 41.2722 26.8573 39.4697 25.0714C38.6228 24.2323 38.7259 22.9413 39.676 22.3066C40.3764 21.8386 41.2939 21.9139 41.9291 22.5164C42.6023 23.1565 43.2538 23.8235 43.9161 24.4743C46.5384 27.0671 49.1552 29.6652 51.7774 32.2579C51.8534 32.3332 51.9186 32.4085 52 32.4946C51.9512 32.5537 51.9132 32.6022 51.8697 32.6452C48.5797 35.8995 45.2897 39.1593 41.9997 42.4136C41.3536 43.0538 40.4795 43.1775 39.7575 42.7525C38.7477 42.1554 38.5848 40.8268 39.4372 39.9608C40.1538 39.2292 40.8921 38.5138 41.6196 37.793C42.7163 36.7064 43.813 35.6198 44.9097 34.5386C44.9802 34.4687 45.0508 34.388 45.1648 34.2643L45.1703 34.2697Z" fill="white"/>
</g>
<defs>
<filter id="filter0_d_3_5544" x="0" y="0" width="74" height="74" filterUnits="userSpaceOnUse" color-interpolation-filters="sRGB">
<feFlood flood-opacity="0" result="BackgroundImageFix"/>
<feColorMatrix in="SourceAlpha" type="matrix" values="0 0 0 0 0 0 0 0 0 0 0 0 0 0 0 0 0 0 127 0" result="hardAlpha"/>
<feOffset dy="4"/>
<feGaussianBlur stdDeviation="2"/>
<feComposite in2="hardAlpha" operator="out"/>
<feColorMatrix type="matrix" values="0 0 0 0 0.054902 0 0 0 0 0.0313726 0 0 0 0 0.0941176 0 0 0 0.25 0"/>
<feBlend mode="normal" in2="BackgroundImageFix" result="effect1_dropShadow_3_5544"/>
<feBlend mode="normal" in="SourceGraphic" in2="effect1_dropShadow_3_5544" result="shape"/>
</filter>
<clipPath id="clip0_3_5544">
<rect width="31" height="21" fill="white" transform="translate(21 22)"/>
</clipPath>
</defs>
</svg>
